<svg xmlns="http://www.w3.org/2000/svg" viewBox="0 0 512 512" width="512" height="512">
  <defs>
    <linearGradient id="sky" x1="0" y1="0" x2="0" y2="1">
      <stop offset="0" stop-color="#9ed3f2"/><stop offset="1" stop-color="#f4d9a6"/>
    </linearGradient>
  </defs>
  <rect width="512" height="512" rx="96" fill="url(#sky)"/>
  <circle cx="384" cy="132" r="54" fill="#ffd23f"/>
  <path d="M0 360 Q128 312 256 348 T512 360 V512 H0 Z" fill="#e9c987"/>
  <path d="M0 408 Q160 360 320 400 T512 410 V512 H0 Z" fill="#dcab63"/>
  <path d="M70 452 C150 392 150 392 230 452 S370 392 450 452" fill="none" stroke="#fff7e6" stroke-width="14" stroke-linecap="round" stroke-dasharray="2 30"/>
  <g transform="translate(246 250) scale(1.9)">
    <path d="M0 60 C-26 60 -34 28 -22 6 -10 -16 6 -26 6 -54 24 -34 18 -10 30 2 44 16 40 44 22 56 12 62 8 62 0 60 Z" fill="#f4901e" stroke="#c64a1e" stroke-width="6" stroke-linejoin="round"/>
    <path d="M2 36 C12 46 22 40 22 26 22 16 14 12 8 2 2 14 -8 18 -8 30 -8 40 -2 44 2 36 Z" fill="#ffd23f"/>
  </g>
</svg>
